<svg xmlns="http://www.w3.org/2000/svg" xmlns:xlink="http://www.w3.org/1999/xlink" xmlns:inkscape="http://www.inkscape.org/namespaces/inkscape" version="1.1" width="432" height="432" viewBox="0 0 432 432">
<defs>
<clipPath id="clip_1">
<path transform="matrix(1,0,0,-1,0,432)" d="M0 432H432V0H0Z"/>
</clipPath>
</defs>
<g inkscape:groupmode="layer" inkscape:label="Layer 1">
<path transform="matrix(1,0,0,-1,0,432)" d="M217.538 132.081H67.048999V282.564H217.538Z" fill="#d71920"/>
<g clip-path="url(#clip_1)">
<path transform="matrix(1,0,0,-1,200.6416,334.252)" d="M0 0C-.798 1.203-1.203 2.211-1.203 3.015-1.203 3.813-.869 4.217-.198 4.217 .337 4.217 1.207 3.608 2.413 2.407 4.687-.404 7.771-2.613 11.653-4.225 13.26-4.886 15.098-5.117 17.179-4.923 19.254-4.725 21.623-4.286 24.307-3.617 33.677-.133 47.469 17.406 65.686 49.01 82.284 77.797 94.139 102.836 101.239 124.129 101.767 124.664 101.97 124.933 101.839 124.933 102.239 124.933 102.576 123.727 102.847 121.317 103.108 118.773 103.045 117.031 102.645 116.097 95.143 94.807 86.372 74.379 76.33 54.828 59.721 22.296 44.06 2.078 29.331-5.828 27.323-7.034 25.14-7.903 22.803-8.439 20.457-8.972 18.008-9.243 15.471-9.243 13.188-9.243 11.185-8.899 9.446-8.237 5.43-6.23 2.278-3.482 0 0M82.875 49.217C87.153 47.065 97.425 46.795 105.058 46.795 112.149 46.795 118.615 47.462 124.438 48.808 130.264 50.137 135.451 52.022 140.003 54.432 150.58 59.781 155.875 68.561 155.875 80.741 155.875 95.735 148.842 110.002 134.78 123.531 127.152 130.625 119.111 137.087 110.681 142.913 102.239 148.734 93.329 153.787 83.963 158.073 73.651 162.765 63.642 166.242 53.938 168.521 44.227 170.796 34.554 171.936 24.914 171.936 3.884 171.936-7.963 164.3-10.648 149.039-11.045 146.355-11.244 143.746-11.244 141.206-11.244 127.007-8.235 115.422-2.21 106.451-1.536 105.38-1.203 104.582-1.203 104.043L-1.604 103.64C-2.274 103.64-2.945 104.174-3.614 105.249-7.499 108.729-10.648 114.348-13.054 122.121-15.062 128.679-16.066 135.445-16.066 142.407-16.066 144.823-15.863 147.027-15.467 149.039-14.395 156.397-9.712 162.623-1.401 167.714 8.104 173.472 19.215 175.952 31.938 175.151 42.785 174.612 53.466 172.905 63.979 170.024 74.493 167.146 85.03 163.165 95.615 158.073 103.652 154.058 111.209 149.672 118.313 144.915 125.409 140.168 132.173 134.84 138.594 128.949 155.735 114.091 164.309 98.482 164.309 82.145 164.309 67.418 156.474 56.972 140.805 50.816 130.093 46.396 117.237 44.186 102.239 44.186 99.159 44.186 98.128 43.941 95.317 44.216 92.496 44.481 91.567 44.518 89.392 44.831 86.733 45.194 85.05 45.779 79.327 46.946 77.895 47.244 50.414 56.487 50.414 57.297 50.414 58.361 79.176 47.637 81.99 49.109 82.518 47.51 80.589 49.875 82.875 49.217" fill="#f7d13f"/>
<path transform="matrix(1,0,0,-1,154.7139,234.8418)" d="M0 0C-24.505 11.776-42.917 18.606-55.235 20.482-60.325 21.155-62.872 19.681-62.872 16.064-62.872 14.857-62.535 13.381-61.865 11.648-58.119 2.807-51.958-4.959-43.389-11.654-35.35-17.951-27.92-21.162-21.09-21.293-11.183-21.559-4.148-14.462 0 0M-64.476 23.496C-63.005 24.568-61.731 25.435-60.66 26.111-59.59 26.776-58.518 27.247-57.443 27.517-56.779 27.649-56.038 27.744-55.235 27.815-54.433 27.882-53.699 27.916-53.03 27.916-46.197 27.916-36.426 25.307-23.697 20.084-22.899 19.681-20.288 18.477-15.866 16.471-11.447 14.459-5.156 11.512 3.017 7.627 11.049 29.185 17.741 45.795 23.099 57.439 29.39 71.903 35.418 84.021 41.177 93.797 46.932 103.575 52.357 111.142 57.449 116.495 58.918 117.964 60.66 119.441 62.669 120.915 64.674 122.385 67.158 123.99 70.104 125.736 73.719 127.609 77.061 129.082 80.145 130.158 83.225 131.225 86.098 131.756 88.78 131.756 96.817 132.026 104.077 129.154 110.57 123.12 117.067 117.094 122.127 108.461 125.739 97.213 125.87 96.813 126.005 96.444 126.14 96.109 126.271 95.771 126.342 95.473 126.342 95.207 126.342 94.002 125.941 93.398 125.136 93.398 124.338 93.398 123.667 94.133 123.132 95.607 121.52 99.892 119.448 103.873 116.904 107.558 114.36 111.239 111.407 114.691 108.062 117.901 101.501 124.333 94.944 127.815 88.38 128.347 79.942 129.154 70.973 124.196 61.462 113.48 51.151 101.965 39.502 82.018 26.514 53.625 24.641 49.61 22.061 43.649 18.779 35.747 15.497 27.845 11.448 17.807 6.626 5.621 11.98 2.807 17.31-.074 22.601-3.02 27.883-5.965 33.211-8.912 38.565-11.854 48.472-17.074 57.878-21.761 66.789-25.908 75.691-30.06 84.161-33.744 92.194-36.961 114.693-45.668 137.046-53.444 149.267-52.65 162.415-51.793 173.488-50.493 176.521-49.324 180.589-47.755 181.585-50.628 178.509-51.432 175.024-52.508 165.801-54.641 162.392-55.048 158.975-55.452 152.62-56.019 149.267-56.163 133.871-56.556 114.392-49.146 90.083-40.573 65.781-32.008 37.025-19.014 3.818-1.607 1.804-7.769-1.674-12.926-6.626-17.074-11.317-21.363-16.202-23.639-21.286-23.908-31.606-24.174-42.045-19.157-52.621-8.842-63.071 .664-68.562 9.102-69.095 16.471-69.366 18.477-67.824 20.815-64.476 23.496" fill="#f7d13f"/>
</g>
</g>
</svg>
